<?xml version="1.0" standalone="no"?>
<!DOCTYPE svg PUBLIC "-//W3C//DTD SVG 20010904//EN"
 "http://www.w3.org/TR/2001/REC-SVG-20010904/DTD/svg10.dtd">
<svg version="1.0" xmlns="http://www.w3.org/2000/svg"
 width="700.000000pt" height="700.000000pt" viewBox="0 0 700.000000 700.000000"
 preserveAspectRatio="xMidYMid meet">
<metadata>
Created by potrace 1.11, written by Peter Selinger 2001-2013
</metadata>
<g transform="translate(0.000000,700.000000) scale(0.100000,-0.100000)"
fill="#000000" stroke="none">
<path d="M1840 6497 c-3 -3 -48 -8 -100 -12 -130 -9 -153 -11 -170 -18 -8 -3
-31 -8 -50 -10 -70 -10 -217 -47 -275 -71 -33 -13 -89 -34 -125 -47 -107 -38
-380 -189 -440 -244 -19 -18 -52 -44 -73 -60 -20 -15 -55 -45 -78 -66 -22 -21
-53 -50 -70 -65 -16 -15 -29 -33 -29 -41 0 -7 -4 -13 -8 -13 -24 0 -201 -203
-238 -272 -19 -36 -63 -192 -70 -246 -3 -24 -14 -67 -26 -95 -24 -60 -46 -137
-54 -187 -3 -19 -7 -40 -9 -47 -27 -82 -27 -440 0 -653 16 -117 103 -376 165
-485 71 -126 106 -183 130 -210 15 -16 38 -46 51 -65 13 -19 71 -83 129 -141
58 -58 119 -125 135 -149 17 -24 44 -50 60 -59 17 -9 62 -37 100 -62 102 -66
136 -73 265 -54 106 16 167 51 186 106 19 58 12 225 -13 275 -26 54 -121 171
-172 212 -30 24 -53 59 -90 135 -56 116 -64 141 -85 252 -18 93 -17 345 1 366
17 22 83 152 83 164 0 16 124 134 180 172 76 51 198 81 312 77 59 -2 166 -35
208 -64 14 -9 30 -19 36 -21 31 -11 157 -138 202 -202 83 -121 125 -213 127
-282 8 -209 18 -423 21 -438 2 -15 8 -116 19 -382 2 -38 13 -122 25 -185 11
-63 23 -128 26 -145 42 -240 150 -660 214 -833 11 -28 19 -55 18 -60 -31 -154
-37 -246 -20 -292 5 -14 13 -52 16 -84 13 -105 28 -129 110 -171 58 -29 86
-37 146 -41 41 -2 82 -6 91 -9 9 -3 46 -38 80 -78 80 -90 309 -320 369 -370
67 -56 237 -169 303 -201 65 -32 117 -76 117 -99 0 -27 105 -97 177 -119 58
-18 82 -19 168 -13 137 10 129 10 230 -14 210 -50 405 -81 555 -88 113 -6 117
-7 205 -53 50 -25 111 -58 137 -73 104 -60 150 -70 277 -63 141 7 144 8 281
44 209 55 281 104 677 453 109 96 236 225 332 339 175 203 310 486 362 753 29
147 32 407 6 537 -23 116 -378 480 -562 576 -56 29 -147 64 -176 68 -13 1 -32
6 -42 11 -18 7 -320 0 -335 -8 -4 -3 -34 -7 -67 -11 -33 -3 -71 -8 -84 -11
-14 -2 -45 -7 -70 -10 -25 -3 -57 -8 -71 -12 -14 -3 -166 -8 -338 -10 -348 -5
-395 0 -587 62 -150 49 -202 75 -293 149 -134 109 -228 232 -282 371 -22 55
-24 77 -26 265 -1 113 -5 243 -8 290 -3 47 -8 139 -11 205 -6 162 -15 251 -40
385 -7 41 -16 93 -20 115 -8 49 -107 340 -141 414 -43 95 -172 292 -219 336
-6 6 -28 33 -50 60 -55 71 -92 109 -155 157 -30 24 -57 45 -60 48 -3 3 -39 34
-79 69 -146 125 -295 207 -508 280 -49 17 -69 20 -102 12 -23 -5 -42 -10 -44
-11 -1 -1 -15 4 -32 10 -32 12 -103 27 -170 36 -22 3 -51 8 -65 11 -34 7 -494
16 -500 10z m440 -272 c106 -12 181 -22 223 -31 12 -2 49 -9 82 -15 77 -14
199 -45 247 -64 83 -32 386 -291 513 -437 140 -161 253 -392 320 -648 9 -36
19 -76 21 -90 2 -14 7 -36 10 -50 3 -14 7 -34 9 -45 23 -136 29 -224 32 -515
4 -347 16 -669 28 -730 13 -70 46 -181 66 -225 39 -82 160 -186 282 -239 28
-13 90 -49 137 -80 46 -30 98 -58 115 -61 29 -6 40 -10 100 -35 47 -20 112
-31 204 -33 l84 -2 24 -39 c33 -52 55 -114 54 -153 0 -18 4 -33 9 -33 6 0 10
-6 10 -13 0 -46 98 -58 131 -18 27 33 28 66 2 170 -19 78 -10 89 54 67 29 -9
51 -72 57 -164 8 -102 27 -133 87 -134 24 -1 39 6 57 27 23 27 24 35 19 100
-7 71 -15 131 -22 151 -2 7 12 14 33 17 60 10 77 -16 88 -135 11 -128 44 -167
113 -138 50 20 57 83 26 241 l-7 36 44 8 c23 4 48 9 53 9 6 1 24 -29 42 -66
33 -72 56 -87 108 -74 33 8 48 47 43 114 -3 28 -2 53 1 53 3 1 22 3 41 5 19 2
69 10 110 18 187 37 284 38 355 5 43 -20 46 -24 30 -35 -10 -7 -49 -20 -89
-29 -39 -9 -84 -22 -101 -30 -16 -7 -56 -21 -88 -31 -32 -9 -77 -31 -100 -48
-23 -17 -60 -40 -82 -51 -162 -79 -398 -310 -543 -530 -69 -105 -158 -282
-187 -375 -10 -30 -21 -59 -26 -64 -10 -12 -39 11 -39 31 0 46 -111 190 -159
207 -14 5 -38 17 -53 28 -24 16 -44 19 -135 17 -59 -1 -119 -6 -133 -12 -132
-57 -201 -178 -205 -357 -2 -140 41 -250 131 -329 43 -37 77 -49 118 -42 5 1
74 4 153 6 102 3 152 9 173 20 16 8 33 15 37 15 4 0 6 -48 3 -107 -3 -60 -3
-148 0 -197 6 -106 2 -115 -41 -99 -18 7 -36 10 -40 7 -5 -3 -9 25 -10 63 -1
116 -12 151 -52 178 -27 17 -59 11 -75 -16 -7 -10 -15 -54 -18 -96 -7 -100 -8
-103 -43 -103 -59 0 -61 2 -54 109 6 97 6 98 -23 130 l-30 33 -37 -18 c-21
-10 -38 -25 -38 -36 -2 -20 -5 -37 -9 -40 -1 -2 -7 -32 -14 -67 -6 -37 -17
-66 -25 -69 -11 -4 -12 11 -6 84 14 161 7 196 -41 214 -40 16 -72 -3 -79 -47
-3 -21 -10 -58 -15 -83 -5 -25 -11 -61 -15 -82 -6 -37 -19 -48 -60 -48 -31 0
-35 15 -35 135 0 107 -21 204 -58 264 -55 91 -152 151 -242 151 -67 0 -184
-37 -249 -78 -56 -36 -65 -46 -132 -144 -36 -54 -63 -61 -81 -23 -13 28 1 99
28 155 24 48 29 125 10 155 -26 40 -61 33 -98 -20 -17 -25 -33 -53 -34 -63 -5
-33 -44 -110 -58 -115 -18 -7 -34 30 -29 66 2 15 16 51 32 80 27 51 48 119 55
185 4 36 -24 82 -50 82 -29 0 -74 -31 -90 -61 -8 -17 -24 -58 -35 -91 -10 -34
-24 -67 -30 -74 -15 -19 -31 -7 -20 14 16 31 80 206 85 235 7 41 -9 77 -32 70
-19 -5 -73 -90 -110 -176 -24 -55 -59 -65 -78 -23 -10 21 -7 31 26 78 20 30
39 65 43 78 3 14 10 41 15 61 16 61 7 198 -17 260 -29 75 -88 141 -158 175
-48 24 -69 28 -142 28 -47 0 -107 -3 -133 -6 -51 -7 -52 -6 -48 42 2 25 25 63
66 107 35 38 45 75 25 101 -9 11 -28 23 -42 26 -27 4 -89 -20 -89 -35 0 -17
-29 -9 -40 10 -17 33 -11 65 21 117 54 84 62 109 44 144 -14 27 -21 30 -60 30
-25 0 -45 -4 -45 -10 0 -20 -31 -9 -42 15 -15 34 -3 45 87 75 39 13 90 38 114
57 24 18 49 33 55 33 14 0 84 118 96 162 9 34 7 91 -5 149 -21 98 -104 198
-206 250 -56 28 -74 32 -146 33 -53 1 -87 6 -95 14 -22 22 4 28 105 25 77 -2
98 1 125 17 18 11 32 25 32 30 0 12 -60 70 -71 70 -4 0 -14 13 -22 30 -14 27
-14 32 4 54 23 29 23 36 4 72 -8 15 -13 29 -11 31 1 2 34 11 72 21 70 18 184
90 184 116 0 7 8 21 18 32 41 44 48 170 16 268 -33 100 -137 167 -256 167 -97
0 -215 -41 -272 -94 -16 -14 -32 -24 -37 -22 -4 3 -30 42 -56 86 -63 106 -138
197 -213 256 -53 43 -58 49 -43 61 9 6 27 12 39 12 37 0 70 17 114 56 83 75
111 161 86 268 -16 65 -44 113 -96 160 -126 114 -295 120 -398 15 -37 -38 -39
-49 -27 -216 2 -25 17 -68 39 -107 53 -95 56 -93 -78 -58 l-69 18 -3 69 c-4
96 -12 135 -36 167 -23 32 -47 35 -78 10 -19 -15 -24 -30 -26 -88 -7 -138 -19
-173 -54 -154 -16 9 -18 24 -18 133 1 163 -20 202 -77 141 -26 -28 -32 -58
-39 -194 -3 -47 -8 -93 -11 -102 -9 -24 -31 -12 -46 25 -7 18 -15 34 -18 37
-4 3 -19 24 -35 47 -33 50 -70 64 -174 65 -79 1 -107 -9 -152 -54 -92 -91
-100 -254 -16 -342 17 -18 38 -35 46 -38 12 -4 8 -15 -19 -59 -108 -172 -154
-299 -155 -434 -2 -146 20 -315 59 -468 7 -25 5 -27 -16 -23 -31 5 -70 -16
-103 -54 -27 -33 -41 -32 -57 3 -5 12 -20 39 -33 61 l-24 38 29 62 c25 54 27
66 18 100 -10 37 -12 38 -47 33 -20 -3 -47 -9 -59 -13 -19 -5 -21 -3 -17 20 8
46 25 80 63 131 50 65 61 88 65 130 3 27 -1 37 -20 50 -37 24 -66 18 -118 -25
-57 -48 -74 -51 -49 -10 9 17 21 30 24 30 4 0 11 10 15 23 6 22 25 49 112 165
73 97 81 114 72 139 -5 12 -21 29 -35 39 -22 14 -32 15 -63 5 -43 -13 -67 -32
-106 -83 -15 -21 -32 -35 -37 -33 -11 8 5 48 31 77 12 12 40 47 63 77 23 30
50 65 60 78 11 13 21 41 24 62 5 34 2 41 -21 56 -25 17 -29 17 -81 -3 -30 -12
-55 -19 -55 -17 0 2 11 37 24 77 34 103 77 198 183 397 51 95 93 176 93 180 0
4 24 25 53 46 28 22 54 42 57 45 9 11 248 180 254 180 3 0 25 14 50 30 122 83
408 175 666 215 19 3 109 8 200 11 91 4 166 7 167 8 4 3 175 -3 223 -9z m-385
-789 c40 -17 64 -58 72 -127 5 -45 3 -52 -18 -67 -57 -42 -147 -54 -186 -27
-23 16 -44 74 -48 132 -4 50 55 96 133 102 7 1 28 -5 47 -13z m-928 -309 c39
-66 45 -100 27 -143 -40 -95 -160 -99 -195 -7 -22 58 17 169 70 198 43 24 62
15 98 -48z m1660 -603 c29 -39 -2 -140 -50 -165 -12 -6 -35 -27 -51 -46 -27
-33 -33 -35 -73 -30 -50 5 -77 26 -105 81 -19 37 -19 41 -4 81 22 57 55 85
112 95 72 13 156 5 171 -16z m-299 -326 c18 -18 14 -38 -8 -38 -11 0 -20 4
-20 9 0 5 -3 16 -6 25 -7 19 16 22 34 4z m-1591 -415 c65 -142 228 -353 271
-353 13 0 35 -56 27 -69 -12 -20 -67 -12 -104 16 -32 24 -220 209 -279 275
l-23 25 37 72 c21 39 41 71 45 71 5 0 16 -17 26 -37z m1741 -198 c116 -55 125
-118 34 -257 -42 -64 -75 -78 -188 -79 -59 -1 -68 2 -103 33 -48 41 -60 93
-41 176 19 86 28 98 89 125 70 32 143 33 209 2z m4084 -911 c62 -9 138 -104
152 -189 4 -22 19 -80 33 -130 55 -187 24 -339 -131 -640 -69 -134 -119 -210
-218 -332 -63 -78 -176 -193 -189 -193 -3 0 -17 -16 -30 -36 -28 -42 -266
-243 -359 -304 l-65 -42 -125 5 c-69 3 -138 9 -155 12 -71 14 -113 28 -163 52
-57 29 -61 36 -80 158 -9 58 -9 83 3 208 22 235 73 401 206 663 95 188 156
273 298 414 132 132 242 213 365 269 73 34 239 81 285 81 14 0 33 5 41 10 14
9 39 8 132 -6z m-3709 -409 c26 -11 37 -47 37 -124 0 -59 -4 -72 -30 -108 -16
-22 -31 -49 -33 -59 -5 -27 -66 -88 -107 -106 -60 -27 -167 -1 -216 54 -35 38
-44 64 -38 105 10 72 22 102 63 160 31 45 48 59 68 61 16 2 62 11 103 21 71
17 104 16 153 -4z m1899 -414 c10 0 36 -17 57 -37 30 -27 42 -47 50 -85 18
-82 14 -124 -14 -157 -14 -17 -25 -37 -25 -45 0 -9 -11 -29 -25 -45 -29 -35
-62 -35 -160 -4 -46 15 -64 27 -78 51 -24 40 -45 119 -42 156 2 17 3 40 4 52
1 12 11 34 24 48 26 31 123 72 163 69 16 -1 37 -2 46 -3z m-765 -470 c38 -55
53 -165 31 -218 -15 -37 -15 -38 -17 -77 -2 -53 -58 -127 -110 -144 -78 -26
-139 1 -187 84 -24 41 -26 52 -21 117 8 92 20 135 56 184 32 45 81 72 150 82
65 10 73 8 98 -28z"/>
<path d="M3165 5082 c-23 -4 -71 -66 -109 -140 -14 -29 -30 -52 -34 -52 -15 0
-48 -74 -51 -111 -2 -33 1 -37 47 -62 l49 -27 46 40 c57 50 93 112 110 187 12
52 13 73 8 142 -1 19 -29 29 -66 23z"/>
<path d="M3330 4733 c-24 -5 -108 -152 -120 -210 -24 -112 34 -165 110 -101
69 58 126 223 97 285 -5 12 -13 23 -16 24 -21 4 -58 4 -71 2z"/>
<path d="M3365 4323 c-30 -6 -122 -165 -133 -231 -9 -51 -8 -55 18 -84 24 -26
32 -29 66 -24 21 4 49 14 62 22 45 30 114 207 104 269 -5 36 -61 59 -117 48z"/>
<path d="M3201 3244 c-70 -25 -93 -42 -146 -105 -48 -58 -55 -81 -56 -184 0
-95 15 -177 39 -218 21 -36 118 -92 187 -108 91 -20 194 -29 201 -18 3 5 17 9
31 9 48 0 120 68 158 148 65 136 21 330 -98 438 -52 47 -72 53 -185 57 -53 1
-88 -4 -131 -19z m177 -202 c42 -22 52 -49 47 -131 -3 -66 -33 -133 -71 -157
-20 -14 -38 -16 -97 -10 -40 4 -79 8 -87 8 -40 2 -89 85 -90 151 0 99 97 172
214 162 27 -2 65 -13 84 -23z"/>
<path d="M3738 2449 c-10 -5 -18 -8 -18 -5 0 9 -74 -29 -117 -59 -34 -24 -45
-42 -62 -93 -41 -122 -17 -220 73 -307 23 -22 55 -57 71 -77 19 -24 41 -39 60
-42 17 -3 54 -10 83 -16 112 -21 239 38 299 140 29 48 52 130 47 169 -10 90
-76 236 -112 248 -9 3 -40 16 -69 29 -43 20 -68 24 -145 24 -51 0 -101 -5
-110 -11z m163 -183 c41 -27 57 -63 63 -139 3 -40 -1 -54 -24 -85 -49 -66 -66
-77 -133 -78 -59 -1 -63 0 -106 42 -46 43 -46 43 -45 108 2 109 32 155 113
171 13 2 26 6 28 9 11 10 69 -5 104 -28z"/>
<path d="M6302 2520 c-59 -28 -126 -70 -182 -114 -14 -11 -113 -108 -220 -216
-108 -107 -217 -211 -243 -230 -25 -19 -47 -40 -47 -46 0 -6 -10 -24 -22 -39
-25 -33 -96 -166 -151 -285 -45 -97 -51 -152 -26 -228 6 -19 12 -62 14 -96 3
-65 25 -120 70 -174 25 -30 28 -30 98 -27 74 3 134 20 184 51 25 16 131 100
143 114 3 4 16 13 28 22 39 27 189 237 238 333 29 58 59 101 82 120 21 16 72
63 114 105 76 75 82 83 155 250 59 135 58 132 58 235 0 88 -3 107 -27 156 -37
79 -66 99 -142 99 -47 0 -75 -7 -124 -30z m128 -156 c34 -87 26 -164 -26 -268
-31 -64 -137 -182 -228 -256 -30 -25 -55 -50 -56 -56 0 -6 -9 -19 -20 -29 -11
-10 -22 -27 -26 -38 -3 -11 -31 -61 -61 -111 -31 -50 -58 -98 -62 -106 -9 -23
-235 -232 -273 -252 -18 -10 -45 -18 -60 -18 -24 0 -27 4 -33 45 -7 41 -2 156
9 215 2 14 7 52 11 85 5 48 18 81 67 166 40 71 71 112 91 124 17 10 119 104
226 209 108 105 221 207 251 227 30 20 73 48 95 62 53 34 83 35 95 1z"/>
</g>
</svg>
